<svg xmlns="http://www.w3.org/2000/svg" xmlns:xlink="http://www.w3.org/1999/xlink" width="190" zoomAndPan="magnify" viewBox="0 0 142.5 54.75" height="73" preserveAspectRatio="xMidYMid meet" version="1.0"><defs><g/><clipPath id="90536057b2"><path d="M 5.542969 7 L 52.746094 7 L 52.746094 48 L 5.542969 48 Z M 5.542969 7 " clip-rule="nonzero"/></clipPath><clipPath id="9b7c7e56da"><path d="M 14.886719 15.03125 L 23.875 15.03125 L 23.875 27.019531 L 14.886719 27.019531 Z M 14.886719 15.03125 " clip-rule="nonzero"/></clipPath><clipPath id="ccd5798e95"><path d="M 35.550781 28.160156 L 39 28.160156 L 39 38.648438 L 35.550781 38.648438 Z M 35.550781 28.160156 " clip-rule="nonzero"/></clipPath><clipPath id="2f52d5c1bb"><path d="M 40 28.160156 L 43.792969 28.160156 L 43.792969 38.648438 L 40 38.648438 Z M 40 28.160156 " clip-rule="nonzero"/></clipPath></defs><g fill="#2f80ed" fill-opacity="1"><g transform="translate(48.516678, 40.750457)"><g><path d="M 20.390625 -25.234375 L 20.390625 -20.3125 L 13.703125 -20.3125 L 13.703125 0 L 7.546875 0 L 7.546875 -20.3125 L 0.859375 -20.3125 L 0.859375 -25.234375 Z M 20.390625 -25.234375 "/></g></g></g><g fill="#2f80ed" fill-opacity="1"><g transform="translate(69.763362, 40.750457)"><g><path d="M 8.265625 -25.234375 L 8.265625 -10.140625 C 8.265625 -8.628906 8.632812 -7.460938 9.375 -6.640625 C 10.125 -5.828125 11.21875 -5.421875 12.65625 -5.421875 C 14.09375 -5.421875 15.191406 -5.828125 15.953125 -6.640625 C 16.722656 -7.460938 17.109375 -8.628906 17.109375 -10.140625 L 17.109375 -25.234375 L 23.265625 -25.234375 L 23.265625 -10.171875 C 23.265625 -7.921875 22.785156 -6.015625 21.828125 -4.453125 C 20.867188 -2.898438 19.578125 -1.726562 17.953125 -0.9375 C 16.335938 -0.144531 14.535156 0.25 12.546875 0.25 C 10.554688 0.25 8.773438 -0.132812 7.203125 -0.90625 C 5.640625 -1.6875 4.398438 -2.863281 3.484375 -4.4375 C 2.578125 -6.007812 2.125 -7.921875 2.125 -10.171875 L 2.125 -25.234375 Z M 8.265625 -25.234375 "/></g></g></g><g fill="#2f80ed" fill-opacity="1"><g transform="translate(95.108389, 40.750457)"><g><path d="M 17.515625 -12.9375 C 18.972656 -12.625 20.144531 -11.898438 21.03125 -10.765625 C 21.914062 -9.628906 22.359375 -8.328125 22.359375 -6.859375 C 22.359375 -4.753906 21.617188 -3.082031 20.140625 -1.84375 C 18.671875 -0.613281 16.617188 0 13.984375 0 L 2.234375 0 L 2.234375 -25.234375 L 13.59375 -25.234375 C 16.15625 -25.234375 18.160156 -24.644531 19.609375 -23.46875 C 21.054688 -22.300781 21.78125 -20.710938 21.78125 -18.703125 C 21.78125 -17.210938 21.390625 -15.972656 20.609375 -14.984375 C 19.835938 -14.003906 18.804688 -13.320312 17.515625 -12.9375 Z M 8.375 -15.03125 L 12.40625 -15.03125 C 13.40625 -15.03125 14.175781 -15.25 14.71875 -15.6875 C 15.257812 -16.132812 15.53125 -16.789062 15.53125 -17.65625 C 15.53125 -18.519531 15.257812 -19.175781 14.71875 -19.625 C 14.175781 -20.082031 13.40625 -20.3125 12.40625 -20.3125 L 8.375 -20.3125 Z M 12.90625 -4.96875 C 13.9375 -4.96875 14.734375 -5.195312 15.296875 -5.65625 C 15.859375 -6.125 16.140625 -6.800781 16.140625 -7.6875 C 16.140625 -8.582031 15.84375 -9.28125 15.25 -9.78125 C 14.664062 -10.28125 13.859375 -10.53125 12.828125 -10.53125 L 8.375 -10.53125 L 8.375 -4.96875 Z M 12.90625 -4.96875 "/></g></g></g><g fill="#2f80ed" fill-opacity="1"><g transform="translate(118.79969, 40.750457)"><g><path d="M 8.375 -20.3125 L 8.375 -15.203125 L 16.609375 -15.203125 L 16.609375 -10.46875 L 8.375 -10.46875 L 8.375 -4.921875 L 17.6875 -4.921875 L 17.6875 0 L 2.234375 0 L 2.234375 -25.234375 L 17.6875 -25.234375 L 17.6875 -20.3125 Z M 8.375 -20.3125 "/></g></g></g><g clip-path="url(#90536057b2)"><path fill="#2f80ed" d="M 26.703125 21.984375 C 28.800781 20.625 31.804688 20.199219 31.011719 17.089844 C 30.960938 15.160156 31.277344 14.023438 29.277344 12.9375 C 26.273438 11.230469 23.277344 9.496094 20.324219 7.699219 C 19.09375 6.953125 17.964844 6.886719 16.722656 7.597656 C 13.550781 9.429688 10.355469 11.226562 7.175781 13.046875 C 6.140625 13.636719 5.582031 14.484375 5.601562 15.75 C 5.644531 19.355469 5.699219 22.964844 5.597656 26.570312 C 5.550781 28.152344 6.183594 29.121094 7.46875 29.839844 C 10.574219 31.582031 13.683594 33.316406 16.765625 35.101562 C 17.871094 35.738281 18.914062 35.777344 20 35.152344 C 25.941406 31.753906 31.855469 28.300781 37.804688 24.917969 C 39.148438 24.15625 40.496094 24.246094 41.835938 25.0625 C 49.5 29.339844 47.875 27.972656 48.054688 36.433594 C 48.214844 39.636719 43.835938 40.492188 41.722656 42.160156 C 40.257812 43.070312 38.859375 42.953125 37.429688 42.101562 C 33.402344 39.464844 30.433594 39.773438 31.304688 33.929688 C 31.347656 33.285156 31.066406 33.066406 30.496094 33.386719 C 29.441406 33.980469 28.402344 34.601562 27.367188 35.234375 C 27.203125 35.332031 26.980469 35.535156 26.984375 35.6875 C 27.027344 37.335938 27.027344 38.992188 27.234375 40.625 C 27.289062 41.078125 27.914062 41.570312 28.394531 41.847656 C 31.527344 43.679688 34.71875 45.414062 37.835938 47.273438 C 39.207031 48.089844 40.421875 47.980469 41.726562 47.222656 C 44.628906 45.539062 47.527344 43.84375 50.472656 42.238281 C 51.984375 41.417969 52.648438 40.28125 52.617188 38.5625 C 52.554688 35.40625 52.515625 32.246094 52.652344 29.097656 C 52.738281 27.117188 52.046875 25.84375 50.304688 24.90625 C 47.351562 23.324219 44.464844 21.605469 41.566406 19.917969 C 40.320312 19.195312 39.132812 19.105469 37.851562 19.859375 C 32.03125 23.261719 26.183594 26.613281 20.378906 30.042969 C 18.976562 30.867188 17.726562 30.820312 16.390625 30.003906 C 8.898438 25.523438 9.792969 27.300781 9.894531 18.472656 C 9.871094 17.054688 10.480469 16.113281 11.675781 15.441406 C 14.535156 14.121094 17.445312 10.671875 20.71875 12.988281 C 26.09375 16.664062 27 14.496094 26.703125 21.984375 Z M 26.703125 21.984375 " fill-opacity="1" fill-rule="nonzero"/><path fill="#2f80ed" d="M 26.703125 21.984375 C 27.007812 14.507812 26.066406 16.644531 20.71875 12.988281 C 17.441406 10.671875 14.539062 14.125 11.675781 15.441406 C 10.480469 16.113281 9.871094 17.054688 9.894531 18.472656 C 9.792969 27.265625 8.898438 25.535156 16.390625 30.003906 C 17.726562 30.820312 18.976562 30.867188 20.378906 30.042969 C 26.183594 26.613281 32.03125 23.261719 37.851562 19.859375 C 39.132812 19.105469 40.320312 19.195312 41.566406 19.917969 C 44.464844 21.605469 47.351562 23.324219 50.304688 24.90625 C 52.046875 25.84375 52.738281 27.117188 52.652344 29.097656 C 52.515625 32.246094 52.554688 35.40625 52.617188 38.5625 C 52.648438 40.28125 51.984375 41.417969 50.472656 42.238281 C 47.527344 43.84375 44.628906 45.539062 41.726562 47.222656 C 40.421875 47.980469 39.207031 48.089844 37.835938 47.273438 C 34.71875 45.414062 31.527344 43.679688 28.394531 41.847656 C 27.914062 41.570312 27.289062 41.082031 27.234375 40.625 C 27.027344 38.992188 27.027344 37.335938 26.984375 35.6875 C 26.980469 35.535156 27.203125 35.332031 27.367188 35.234375 C 28.402344 34.601562 29.441406 33.980469 30.496094 33.386719 C 31.066406 33.066406 31.347656 33.285156 31.304688 33.929688 C 30.429688 39.765625 33.421875 39.476562 37.429688 42.105469 C 38.859375 42.953125 40.257812 43.070312 41.722656 42.160156 C 43.84375 40.496094 48.21875 39.628906 48.054688 36.433594 C 47.875 28.007812 49.5 29.328125 41.835938 25.0625 C 40.496094 24.246094 39.152344 24.15625 37.804688 24.917969 C 31.855469 28.300781 25.941406 31.753906 20 35.152344 C 18.914062 35.777344 17.871094 35.738281 16.765625 35.101562 C 13.683594 33.316406 10.574219 31.585938 7.46875 29.839844 C 6.183594 29.121094 5.550781 28.152344 5.597656 26.570312 C 5.699219 22.964844 5.644531 19.359375 5.601562 15.75 C 5.582031 14.484375 6.140625 13.636719 7.175781 13.046875 C 10.355469 11.226562 13.550781 9.429688 16.722656 7.597656 C 17.964844 6.886719 19.09375 6.953125 20.324219 7.699219 C 23.277344 9.496094 26.273438 11.230469 29.277344 12.9375 C 31.269531 14.023438 30.960938 15.152344 31.011719 17.089844 C 31.804688 20.199219 28.800781 20.625 26.703125 21.984375 Z M 26.703125 21.984375 " fill-opacity="1" fill-rule="nonzero"/></g><g clip-path="url(#9b7c7e56da)"><path fill="#fafafa" d="M 15.691406 27.015625 C 15.953125 27.015625 16.25 26.902344 16.558594 26.6875 L 23.214844 22.132812 C 23.644531 21.84375 23.875 21.441406 23.875 21.019531 C 23.875 20.601562 23.644531 20.199219 23.214844 19.90625 L 16.570312 15.355469 C 16.261719 15.136719 15.953125 15.035156 15.691406 15.035156 C 15.195312 15.035156 14.886719 15.4375 14.886719 16.101562 L 14.886719 25.949219 C 14.886719 26.613281 15.195312 27.015625 15.691406 27.015625 Z M 15.691406 27.015625 " fill-opacity="1" fill-rule="nonzero"/></g><g clip-path="url(#ccd5798e95)"><path fill="#fafafa" d="M 36.570312 28.148438 L 37.882812 28.148438 C 38.015625 28.148438 38.144531 28.175781 38.269531 28.222656 C 38.390625 28.273438 38.5 28.34375 38.59375 28.433594 C 38.691406 28.527344 38.761719 28.632812 38.8125 28.75 C 38.863281 28.871094 38.890625 28.996094 38.890625 29.125 L 38.890625 37.660156 C 38.890625 37.792969 38.863281 37.914062 38.8125 38.035156 C 38.761719 38.152344 38.691406 38.257812 38.59375 38.351562 C 38.5 38.441406 38.390625 38.511719 38.269531 38.5625 C 38.144531 38.613281 38.015625 38.636719 37.882812 38.636719 L 36.570312 38.636719 C 36.4375 38.636719 36.308594 38.613281 36.183594 38.5625 C 36.0625 38.511719 35.953125 38.441406 35.855469 38.351562 C 35.761719 38.257812 35.691406 38.152344 35.640625 38.035156 C 35.585938 37.914062 35.5625 37.792969 35.5625 37.660156 L 35.5625 29.125 C 35.5625 28.996094 35.585938 28.871094 35.640625 28.75 C 35.691406 28.632812 35.761719 28.527344 35.855469 28.433594 C 35.953125 28.34375 36.0625 28.273438 36.183594 28.222656 C 36.308594 28.175781 36.4375 28.148438 36.570312 28.148438 Z M 36.570312 28.148438 " fill-opacity="1" fill-rule="nonzero"/></g><g clip-path="url(#2f52d5c1bb)"><path fill="#fafafa" d="M 41.484375 28.148438 L 42.796875 28.148438 C 42.929688 28.148438 43.058594 28.175781 43.179688 28.222656 C 43.304688 28.273438 43.414062 28.34375 43.507812 28.433594 C 43.601562 28.527344 43.675781 28.632812 43.726562 28.75 C 43.777344 28.871094 43.804688 28.996094 43.804688 29.125 L 43.804688 37.660156 C 43.804688 37.792969 43.777344 37.914062 43.726562 38.035156 C 43.675781 38.152344 43.601562 38.257812 43.507812 38.351562 C 43.414062 38.441406 43.304688 38.511719 43.179688 38.5625 C 43.058594 38.613281 42.929688 38.636719 42.796875 38.636719 L 41.484375 38.636719 C 41.347656 38.636719 41.21875 38.613281 41.097656 38.5625 C 40.972656 38.511719 40.863281 38.441406 40.769531 38.351562 C 40.675781 38.257812 40.601562 38.152344 40.550781 38.035156 C 40.5 37.914062 40.476562 37.792969 40.476562 37.660156 L 40.476562 29.125 C 40.476562 28.996094 40.5 28.871094 40.550781 28.75 C 40.601562 28.632812 40.675781 28.527344 40.769531 28.433594 C 40.863281 28.34375 40.972656 28.273438 41.097656 28.222656 C 41.21875 28.175781 41.347656 28.148438 41.484375 28.148438 Z M 41.484375 28.148438 " fill-opacity="1" fill-rule="nonzero"/></g></svg>